<svg xmlns="http://www.w3.org/2000/svg" width="225" height="225" viewBox="0 0 225 225" version="1.1"><path d="M 80.231 49.089 C 48.887 55.671, 33.302 69.089, 41.030 82.840 C 47.980 95.206, 73.087 104.084, 105.500 105.636 C 142.417 107.404, 177.362 96.860, 184.888 81.683 C 187.061 77.301, 187.165 76.489, 186.035 72.683 C 183.669 64.714, 173.960 57.570, 158.787 52.633 C 150.081 49.799, 133.277 46.656, 129.906 47.230 C 127.634 47.616, 127.667 47.679, 130.500 48.350 C 145.470 51.895, 154.786 56.655, 156.942 61.860 C 158.715 66.142, 156.473 69.437, 149.665 72.552 C 139.857 77.040, 131.802 78.348, 113.500 78.427 C 96.151 78.501, 86.453 77.138, 77.162 73.319 C 72.273 71.310, 68 67.145, 68 64.390 C 68 58.861, 78.755 52.010, 91.125 49.659 C 94.356 49.045, 97 48.195, 97 47.771 C 97 46.485, 90.017 47.033, 80.231 49.089 M 97.333 51.500 C 88.198 53.486, 82 57.360, 82 61.085 C 82 63.755, 87.515 67.792, 93.817 69.737 C 102.016 72.267, 124.366 72.219, 131.980 69.655 C 139.766 67.032, 143 64.492, 143 61 C 143 56.377, 135.976 52.748, 122.750 50.536 C 117.104 49.592, 118.246 51.348, 124.198 52.761 C 130.465 54.250, 131.870 55.390, 130.381 57.778 C 128.893 60.165, 121.905 61.824, 112.932 61.920 C 105.246 62.001, 95.661 59.879, 94.384 57.812 C 93.344 56.129, 97.682 53.075, 102.120 52.365 C 104.254 52.024, 106 51.352, 106 50.872 C 106 49.770, 104.935 49.847, 97.333 51.500 M 40.750 121.080 C 39.424 121.852, 39 123.412, 39 127.515 C 39 132.014, 39.360 133.122, 41.126 134.068 C 43.438 135.305, 48 133.946, 48 132.021 C 48 130.762, 46.960 130.739, 45.034 131.958 C 42.871 133.326, 41 131.293, 41 127.578 C 41 123.468, 42.646 121.740, 45.239 123.128 C 47.677 124.433, 48.683 123.527, 47.020 121.524 C 45.568 119.774, 43.271 119.612, 40.750 121.080 M 109.750 121.080 C 108.787 121.641, 108 123.167, 108 124.472 C 108 126.297, 108.808 127.112, 111.500 128 C 114.966 129.144, 116.161 131.417, 113.750 132.282 C 113.063 132.528, 111.674 132.304, 110.664 131.784 C 108.125 130.475, 107.264 131.693, 109.294 133.722 C 110.608 135.037, 111.564 135.189, 113.734 134.428 C 118.337 132.816, 117.692 126, 112.937 126 C 111.936 126, 110.809 125.500, 110.431 124.888 C 109.520 123.414, 111.738 122.119, 114.111 122.739 C 116.390 123.335, 116.660 121.467, 114.418 120.607 C 112.349 119.813, 111.837 119.865, 109.750 121.080 M 143.599 121.891 C 142.330 123.293, 141.967 125.167, 142.194 129.141 C 142.514 134.746, 144.271 136.493, 144.816 131.750 C 145.065 129.590, 145.655 129, 147.566 129 C 149.614 129, 150 129.485, 150 132.059 C 150 133.844, 150.417 134.861, 151 134.500 C 151.550 134.160, 152 131.503, 152 128.596 C 152 120.973, 147.604 117.465, 143.599 121.891 M 178.571 121.571 C 176.791 123.351, 176.296 135, 178 135 C 178.550 135, 179 133.650, 179 132 C 179 129.467, 179.389 129, 181.500 129 C 183.484 129, 184 129.504, 184 131.441 C 184 132.784, 184.453 134.162, 185.007 134.504 C 186.534 135.448, 187.395 132.163, 186.269 129.686 C 185.596 128.205, 185.621 126.955, 186.346 125.809 C 187.167 124.510, 186.983 123.639, 185.553 122.059 C 183.329 119.601, 180.723 119.419, 178.571 121.571 M 74.200 122.200 C 72.449 123.951, 72.700 131.558, 74.571 133.429 C 76.570 135.427, 80.380 135.452, 82.020 133.476 C 83.731 131.415, 82.652 130.581, 80.065 131.965 C 77.697 133.233, 76 132.596, 76 130.441 C 76 129.461, 77.119 129, 79.500 129 C 82.667 129, 83 128.733, 83 126.200 C 83 124.660, 82.460 122.860, 81.800 122.200 C 80.253 120.653, 75.747 120.653, 74.200 122.200 M 76 125 C 76 126.273, 76.667 127, 77.833 127 C 80.193 127, 80.998 126.159, 80.324 124.402 C 79.475 122.190, 76 122.671, 76 125 M 145 124.430 C 145 125.451, 145.903 126, 147.583 126 C 150.716 126, 150.373 123.652, 147.172 123.180 C 145.729 122.968, 145 123.388, 145 124.430 M 179.667 123.667 C 178.307 125.026, 179.072 126, 181.500 126 C 183.056 126, 184 125.433, 184 124.500 C 184 123, 180.925 122.409, 179.667 123.667 M 60 134 C 60 134.550, 60.477 135, 61.059 135 C 61.641 135, 61.840 134.550, 61.500 134 C 61.160 133.450, 60.684 133, 60.441 133 C 60.198 133, 60 133.450, 60 134 M 129 134 C 129 134.550, 129.477 135, 130.059 135 C 130.641 135, 130.840 134.550, 130.500 134 C 130.160 133.450, 129.684 133, 129.441 133 C 129.198 133, 129 133.450, 129 134 M 93.438 150.300 C 93.164 151.016, 93.065 157.648, 93.220 165.038 C 93.467 176.910, 93.704 178.514, 95.250 178.811 C 96.783 179.105, 97 178.271, 97 172.073 C 97 166.333, 97.377 164.623, 99 163 C 101.337 160.663, 102.038 160.563, 104.277 162.250 C 105.512 163.180, 106.009 165.419, 106.219 170.989 C 106.452 177.194, 106.800 178.536, 108.250 178.813 C 109.804 179.109, 110 178.207, 110 170.748 C 110 163.047, 109.789 162.150, 107.461 159.963 C 105.576 158.192, 103.902 157.619, 100.961 157.736 L 97 157.894 97 153.447 C 97 150.120, 96.614 149, 95.469 149 C 94.626 149, 93.713 149.585, 93.438 150.300 M 176.221 162.659 C 176.498 176.365, 176.520 176.486, 179.050 177.697 C 180.452 178.368, 182.612 178.653, 183.848 178.329 C 186.919 177.527, 186.233 174.500, 182.981 174.500 L 180.500 174.500 180 162.011 C 179.562 151.066, 179.280 149.480, 177.721 149.182 C 176.075 148.868, 175.963 149.872, 176.221 162.659 M 41.635 159.073 C 36.523 163.093, 38.658 167.242, 47.236 169.962 C 52.024 171.479, 52.737 172.707, 49.648 174.115 C 47.715 174.995, 46.524 174.909, 44.133 173.716 C 41.490 172.397, 40.925 172.386, 39.893 173.629 C 38.947 174.769, 39.092 175.347, 40.602 176.454 C 45.323 179.915, 53.396 178.719, 55.072 174.312 C 56.319 171.031, 54.868 168.570, 50.788 167.046 C 43.873 164.463, 43 164.014, 43 163.040 C 43 161.141, 48.273 160.620, 51.096 162.240 C 53.063 163.369, 54.106 163.494, 54.902 162.698 C 56.613 160.987, 56.253 160.348, 52.599 158.614 C 48.032 156.447, 44.801 156.582, 41.635 159.073 M 71 158.273 C 69.625 158.956, 67.654 161.244, 66.621 163.356 C 61.834 173.137, 72.260 182.495, 81.310 176.540 C 83.699 174.968, 83.913 174.485, 82.740 173.312 C 81.567 172.138, 80.940 172.150, 78.555 173.387 C 73.051 176.243, 67.478 170.879, 70.195 165.342 C 72.300 161.054, 74.525 160.207, 78.185 162.299 C 80.960 163.885, 81.506 163.923, 82.808 162.620 C 84.110 161.318, 83.884 160.899, 80.892 159.076 C 77.007 156.707, 74.550 156.507, 71 158.273 M 125.763 158.565 C 122.760 160.195, 120 164.713, 120 168 C 120 171.141, 122.526 175.418, 125.165 176.746 C 130.312 179.335, 134.276 178.649, 139.040 174.345 L 143.085 170.690 146.357 173.862 C 150.303 177.686, 154.368 178.973, 158.788 177.797 C 164.142 176.374, 168.666 167, 164 167 C 162.900 167, 162 167.625, 162 168.389 C 162 169.153, 161.185 170.785, 160.190 172.014 C 157.526 175.304, 153.524 174.900, 149.427 170.929 L 146.001 167.609 148.723 164.768 C 150.220 163.205, 152.470 161.669, 153.722 161.355 C 155.143 160.998, 156 160.030, 156 158.783 C 156 155.815, 151.399 157.263, 146.865 161.658 C 144.439 164.009, 142.992 164.796, 142.515 164.025 C 140.979 161.539, 133.565 157.002, 131.100 157.040 C 129.670 157.062, 127.268 157.748, 125.763 158.565 M 126.635 163.073 C 123.834 165.276, 123.327 167.875, 125.065 171.122 C 127.425 175.530, 133.611 175.172, 138.126 170.366 L 140.496 167.843 136.763 164.421 C 132.450 160.469, 130.307 160.184, 126.635 163.073" stroke="none" fill="#fcf6f4" fill-rule="evenodd"/><path d="M -0 112.504 L -0 225.009 112.750 224.754 L 225.500 224.500 225.754 112.250 L 226.009 0 113.004 0 L 0 0 -0 112.504 M 0.483 113 C 0.483 174.875, 0.603 200.188, 0.750 169.250 C 0.897 138.313, 0.897 87.688, 0.750 56.750 C 0.603 25.813, 0.483 51.125, 0.483 113 M 80.231 49.089 C 48.887 55.671, 33.302 69.089, 41.030 82.840 C 47.980 95.206, 73.087 104.084, 105.500 105.636 C 142.417 107.404, 177.362 96.860, 184.888 81.683 C 187.061 77.301, 187.165 76.489, 186.035 72.683 C 183.669 64.714, 173.960 57.570, 158.787 52.633 C 150.081 49.799, 133.277 46.656, 129.906 47.230 C 127.634 47.616, 127.667 47.679, 130.500 48.350 C 145.470 51.895, 154.786 56.655, 156.942 61.860 C 158.715 66.142, 156.473 69.437, 149.665 72.552 C 139.857 77.040, 131.802 78.348, 113.500 78.427 C 96.151 78.501, 86.453 77.138, 77.162 73.319 C 72.273 71.310, 68 67.145, 68 64.390 C 68 58.861, 78.755 52.010, 91.125 49.659 C 94.356 49.045, 97 48.195, 97 47.771 C 97 46.485, 90.017 47.033, 80.231 49.089 M 97.333 51.500 C 88.198 53.486, 82 57.360, 82 61.085 C 82 63.755, 87.515 67.792, 93.817 69.737 C 102.016 72.267, 124.366 72.219, 131.980 69.655 C 139.766 67.032, 143 64.492, 143 61 C 143 56.377, 135.976 52.748, 122.750 50.536 C 117.104 49.592, 118.246 51.348, 124.198 52.761 C 130.465 54.250, 131.870 55.390, 130.381 57.778 C 128.893 60.165, 121.905 61.824, 112.932 61.920 C 105.246 62.001, 95.661 59.879, 94.384 57.812 C 93.344 56.129, 97.682 53.075, 102.120 52.365 C 104.254 52.024, 106 51.352, 106 50.872 C 106 49.770, 104.935 49.847, 97.333 51.500 M 40.750 121.080 C 39.424 121.852, 39 123.412, 39 127.515 C 39 132.014, 39.360 133.122, 41.126 134.068 C 43.438 135.305, 48 133.946, 48 132.021 C 48 130.762, 46.960 130.739, 45.034 131.958 C 42.871 133.326, 41 131.293, 41 127.578 C 41 123.468, 42.646 121.740, 45.239 123.128 C 47.677 124.433, 48.683 123.527, 47.020 121.524 C 45.568 119.774, 43.271 119.612, 40.750 121.080 M 109.750 121.080 C 108.787 121.641, 108 123.167, 108 124.472 C 108 126.297, 108.808 127.112, 111.500 128 C 114.966 129.144, 116.161 131.417, 113.750 132.282 C 113.063 132.528, 111.674 132.304, 110.664 131.784 C 108.125 130.475, 107.264 131.693, 109.294 133.722 C 110.608 135.037, 111.564 135.189, 113.734 134.428 C 118.337 132.816, 117.692 126, 112.937 126 C 111.936 126, 110.809 125.500, 110.431 124.888 C 109.520 123.414, 111.738 122.119, 114.111 122.739 C 116.390 123.335, 116.660 121.467, 114.418 120.607 C 112.349 119.813, 111.837 119.865, 109.750 121.080 M 143.599 121.891 C 142.330 123.293, 141.967 125.167, 142.194 129.141 C 142.514 134.746, 144.271 136.493, 144.816 131.750 C 145.065 129.590, 145.655 129, 147.566 129 C 149.614 129, 150 129.485, 150 132.059 C 150 133.844, 150.417 134.861, 151 134.500 C 151.550 134.160, 152 131.503, 152 128.596 C 152 120.973, 147.604 117.465, 143.599 121.891 M 178.571 121.571 C 176.791 123.351, 176.296 135, 178 135 C 178.550 135, 179 133.650, 179 132 C 179 129.467, 179.389 129, 181.500 129 C 183.484 129, 184 129.504, 184 131.441 C 184 132.784, 184.453 134.162, 185.007 134.504 C 186.534 135.448, 187.395 132.163, 186.269 129.686 C 185.596 128.205, 185.621 126.955, 186.346 125.809 C 187.167 124.510, 186.983 123.639, 185.553 122.059 C 183.329 119.601, 180.723 119.419, 178.571 121.571 M 74.200 122.200 C 72.449 123.951, 72.700 131.558, 74.571 133.429 C 76.570 135.427, 80.380 135.452, 82.020 133.476 C 83.731 131.415, 82.652 130.581, 80.065 131.965 C 77.697 133.233, 76 132.596, 76 130.441 C 76 129.461, 77.119 129, 79.500 129 C 82.667 129, 83 128.733, 83 126.200 C 83 124.660, 82.460 122.860, 81.800 122.200 C 80.253 120.653, 75.747 120.653, 74.200 122.200 M 76 125 C 76 126.273, 76.667 127, 77.833 127 C 80.193 127, 80.998 126.159, 80.324 124.402 C 79.475 122.190, 76 122.671, 76 125 M 145 124.430 C 145 125.451, 145.903 126, 147.583 126 C 150.716 126, 150.373 123.652, 147.172 123.180 C 145.729 122.968, 145 123.388, 145 124.430 M 179.667 123.667 C 178.307 125.026, 179.072 126, 181.500 126 C 183.056 126, 184 125.433, 184 124.500 C 184 123, 180.925 122.409, 179.667 123.667 M 60 134 C 60 134.550, 60.477 135, 61.059 135 C 61.641 135, 61.840 134.550, 61.500 134 C 61.160 133.450, 60.684 133, 60.441 133 C 60.198 133, 60 133.450, 60 134 M 129 134 C 129 134.550, 129.477 135, 130.059 135 C 130.641 135, 130.840 134.550, 130.500 134 C 130.160 133.450, 129.684 133, 129.441 133 C 129.198 133, 129 133.450, 129 134 M 93.438 150.300 C 93.164 151.016, 93.065 157.648, 93.220 165.038 C 93.467 176.910, 93.704 178.514, 95.250 178.811 C 96.783 179.105, 97 178.271, 97 172.073 C 97 166.333, 97.377 164.623, 99 163 C 101.337 160.663, 102.038 160.563, 104.277 162.250 C 105.512 163.180, 106.009 165.419, 106.219 170.989 C 106.452 177.194, 106.800 178.536, 108.250 178.813 C 109.804 179.109, 110 178.207, 110 170.748 C 110 163.047, 109.789 162.150, 107.461 159.963 C 105.576 158.192, 103.902 157.619, 100.961 157.736 L 97 157.894 97 153.447 C 97 150.120, 96.614 149, 95.469 149 C 94.626 149, 93.713 149.585, 93.438 150.300 M 176.221 162.659 C 176.498 176.365, 176.520 176.486, 179.050 177.697 C 180.452 178.368, 182.612 178.653, 183.848 178.329 C 186.919 177.527, 186.233 174.500, 182.981 174.500 L 180.500 174.500 180 162.011 C 179.562 151.066, 179.280 149.480, 177.721 149.182 C 176.075 148.868, 175.963 149.872, 176.221 162.659 M 41.635 159.073 C 36.523 163.093, 38.658 167.242, 47.236 169.962 C 52.024 171.479, 52.737 172.707, 49.648 174.115 C 47.715 174.995, 46.524 174.909, 44.133 173.716 C 41.490 172.397, 40.925 172.386, 39.893 173.629 C 38.947 174.769, 39.092 175.347, 40.602 176.454 C 45.323 179.915, 53.396 178.719, 55.072 174.312 C 56.319 171.031, 54.868 168.570, 50.788 167.046 C 43.873 164.463, 43 164.014, 43 163.040 C 43 161.141, 48.273 160.620, 51.096 162.240 C 53.063 163.369, 54.106 163.494, 54.902 162.698 C 56.613 160.987, 56.253 160.348, 52.599 158.614 C 48.032 156.447, 44.801 156.582, 41.635 159.073 M 71 158.273 C 69.625 158.956, 67.654 161.244, 66.621 163.356 C 61.834 173.137, 72.260 182.495, 81.310 176.540 C 83.699 174.968, 83.913 174.485, 82.740 173.312 C 81.567 172.138, 80.940 172.150, 78.555 173.387 C 73.051 176.243, 67.478 170.879, 70.195 165.342 C 72.300 161.054, 74.525 160.207, 78.185 162.299 C 80.960 163.885, 81.506 163.923, 82.808 162.620 C 84.110 161.318, 83.884 160.899, 80.892 159.076 C 77.007 156.707, 74.550 156.507, 71 158.273 M 125.763 158.565 C 122.760 160.195, 120 164.713, 120 168 C 120 171.141, 122.526 175.418, 125.165 176.746 C 130.312 179.335, 134.276 178.649, 139.040 174.345 L 143.085 170.690 146.357 173.862 C 150.303 177.686, 154.368 178.973, 158.788 177.797 C 164.142 176.374, 168.666 167, 164 167 C 162.900 167, 162 167.625, 162 168.389 C 162 169.153, 161.185 170.785, 160.190 172.014 C 157.526 175.304, 153.524 174.900, 149.427 170.929 L 146.001 167.609 148.723 164.768 C 150.220 163.205, 152.470 161.669, 153.722 161.355 C 155.143 160.998, 156 160.030, 156 158.783 C 156 155.815, 151.399 157.263, 146.865 161.658 C 144.439 164.009, 142.992 164.796, 142.515 164.025 C 140.979 161.539, 133.565 157.002, 131.100 157.040 C 129.670 157.062, 127.268 157.748, 125.763 158.565 M 126.635 163.073 C 123.834 165.276, 123.327 167.875, 125.065 171.122 C 127.425 175.530, 133.611 175.172, 138.126 170.366 L 140.496 167.843 136.763 164.421 C 132.450 160.469, 130.307 160.184, 126.635 163.073" stroke="none" fill="#fc6304" fill-rule="evenodd"/></svg>